<svg xmlns="http://www.w3.org/2000/svg" viewBox="0 0 290 150" xmlns:v="https://vecta.io/nano"><style><![CDATA[.a{font-family:Monospaced}.b{font-size:12px}.c{stroke-linecap:square}.d{stroke:#000}.e{stroke-width:2}.f{fill:none}.g{stroke-width:3}.h{fill:#00f}.i{fill:#006400}.j{fill:#fff}.k{fill:#00d200}.l{stroke:#006400}.m{stroke:#00d200}]]></style><path d="M0 0h290v150H0z" class="j"/><g class="f"><path d="M40 15h5" class="c g l"/><use href="#B" class="d e"/></g><text x="25" y="22" class="a b h">b</text><ellipse cx="20" cy="14" rx="4.5" ry="7" class="i"/><text x="17" y="19" class="a b j">0</text><g class="f"><path d="M40 55h5" class="c g l"/><use href="#B" y="40" class="d e"/></g><text x="25" y="62" class="a b h">b</text><ellipse cx="20" cy="54" rx="4.5" ry="7" class="i"/><text x="17" y="59" class="a b j">0</text><g class="d e f"><use href="#C"/><path d="M70 10H46v50h24" class="c"/></g><g class="i"><circle cx="45" cy="15" r="2"/><circle cx="45" cy="55" r="2"/></g><g class="f"><path d="M99 35h-3" class="c g l"/><use href="#A" class="d e"/></g><text x="120" y="42" class="a b h">b</text><text x="112" y="39" class="a b">0</text><circle cx="95" cy="35" r="2" class="i"/><g class="f"><path d="M190 55h5" class="c g m"/><use href="#A" x="55" y="20" class="d e"/></g><text x="175" y="62" class="a b h">b</text><ellipse cx="170" cy="54" rx="4.5" ry="7" class="k"/><text x="167" y="59" class="a b j">1</text><g class="d e f"><use href="#C" x="150"/><path d="M220 10h-24v50h24" class="c"/></g><circle cx="195" cy="55" r="2" class="k"/><g class="f"><path d="M249 35h-3" class="c g l"/><use href="#A" x="150" class="d e"/></g><text x="270" y="42" class="a b h">b</text><text x="262" y="39" class="a b">0</text><circle cx="245" cy="35" r="2" class="i"/><g class="f"><path d="M190 15h5" class="c g l"/><use href="#A" x="55" y="-20" class="d e"/></g><text x="175" y="22" class="a b h">b</text><ellipse cx="170" cy="14" rx="4.5" ry="7" class="i"/><text x="167" y="19" class="a b j">0</text><circle cx="195" cy="15" r="2" class="i"/><g class="f"><path d="M40 135h5" class="c g l"/><use href="#B" y="120" class="d e"/></g><text x="25" y="142" class="a b h">b</text><ellipse cx="20" cy="134" rx="4.5" ry="7" class="i"/><text x="17" y="139" class="a b j">0</text><g class="f"><path d="M40 95h5" class="c g m"/><use href="#B" y="80" class="d e"/></g><text x="25" y="102" class="a b h">b</text><ellipse cx="20" cy="94" rx="4.5" ry="7" class="k"/><text x="17" y="99" class="a b j">1</text><g class="d e f"><use href="#C" y="80"/><path d="M70 90H46v50h24" class="c"/></g><circle cx="45" cy="95" r="2" class="k"/><circle cx="45" cy="135" r="2" class="i"/><g class="f"><path d="M99 115h-3" class="c g l"/><use href="#A" y="80" class="d e"/></g><text x="120" y="122" class="a b h">b</text><text x="112" y="119" class="a b">0</text><circle cx="95" cy="115" r="2" class="i"/><g class="f"><g class="d e"><use href="#C" x="150" y="80"/><path d="M220 90h-24v50h24" class="c"/></g><path d="M190 135h5" class="c g m"/><use href="#A" x="55" y="100" class="d e"/></g><text x="175" y="142" class="a b h">b</text><ellipse cx="170" cy="134" rx="4.5" ry="7" class="k"/><text x="167" y="139" class="a b j">1</text><circle cx="195" cy="135" r="2" class="k"/><g class="f"><path d="M249 115h-3" class="c g m"/><use href="#A" x="150" y="80" class="d e"/></g><text x="270" y="122" class="a b h">b</text><text x="262" y="119" class="a b">1</text><circle cx="245" cy="115" r="2" class="k"/><g class="f"><path d="M190 95h5" class="c g m"/><use href="#A" x="55" y="60" class="d e"/></g><text x="175" y="102" class="a b h">b</text><ellipse cx="170" cy="94" rx="4.5" ry="7" class="k"/><text x="167" y="99" class="a b j">1</text><circle cx="195" cy="95" r="2" class="k"/><defs><path id="A" d="M101 26h24l10 9-10 9h-24z"/><path id="B" d="M6 6h24l10 9-10 9H6z"/><path id="C" d="M70 60a25 25 90 0 0 0-50"/></defs></svg>