<svg xmlns="http://www.w3.org/2000/svg" viewBox="0 0 650 150" xmlns:v="https://vecta.io/nano"><style><![CDATA[.a{font-family:Monospaced}.b{font-size:12px}.c{fill:none}.d{stroke:#000}.e{stroke-width:2}.f{stroke-linecap:square}.g{fill:#006400}.h{fill:#00f}.i{stroke-width:3}.j{fill:#fff}.k{stroke:#006400}.l{fill:#00d200}.m{stroke:#00d200}]]></style><path d="M0 0h650v150H0z" class="j"/><g class="c f i k"><path d="M75 35v100h90"/><path d="M165 75H55v20h80"/></g><g class="g"><circle cx="75" cy="35" r="5"/><circle cx="55" cy="95" r="5"/></g><g class="c"><path d="M449 115h-3" class="f i m"/><use href="#A" class="d e"/></g><text x="470" y="122" class="a b h">b</text><text x="462" y="119" class="a b">1</text><use href="#A" x="-105" y="-100" class="c d e"/><text x="365" y="22" class="a b h">b</text><ellipse cx="360" cy="14" rx="4.5" ry="7" class="g"/><text x="357" y="19" class="a b j">0</text><use href="#A" x="55" y="-20" class="c d e"/><text x="525" y="102" class="a b h">b</text><ellipse cx="520" cy="94" rx="4.5" ry="7" class="l"/><text x="517" y="99" class="a b j">1</text><use href="#A" x="-105" y="20" class="c d e"/><text x="365" y="142" class="a b h">b</text><ellipse cx="360" cy="134" rx="4.5" ry="7" class="l"/><text x="357" y="139" class="a b j">1</text><use href="#A" x="55" y="-60" class="c d e"/><text x="525" y="62" class="a b h">b</text><ellipse cx="520" cy="54" rx="4.5" ry="7" class="g"/><text x="517" y="59" class="a b j">0</text><g class="c"><path d="M609 115h-3" class="f i k"/><use href="#A" x="160" class="d e"/></g><text x="630" y="122" class="a b h">b</text><text x="622" y="119" class="a b">0</text><g class="c"><path d="M449 35h-3" class="f i k"/><use href="#A" y="-80" class="d e"/></g><text x="470" y="42" class="a b h">b</text><text x="462" y="39" class="a b">0</text><g class="c"><path d="M609 35h-3" class="f i m"/><use href="#A" x="160" y="-80" class="d e"/></g><text x="630" y="42" class="a b h">b</text><text x="622" y="39" class="a b">1</text><use href="#A" x="-105" y="-20" class="c d e"/><text x="365" y="102" class="a b h">b</text><ellipse cx="360" cy="94" rx="4.5" ry="7" class="g"/><text x="357" y="99" class="a b j">0</text><use href="#A" x="55" y="-100" class="c d e"/><text x="525" y="22" class="a b h">b</text><ellipse cx="520" cy="14" rx="4.5" ry="7" class="l"/><text x="517" y="19" class="a b j">1</text><use href="#A" x="-105" y="-60" class="c d e"/><text x="365" y="62" class="a b h">b</text><ellipse cx="360" cy="54" rx="4.5" ry="7" class="g"/><text x="357" y="59" class="a b j">0</text><use href="#A" x="55" y="20" class="c d e"/><text x="525" y="142" class="a b h">b</text><ellipse cx="520" cy="134" rx="4.5" ry="7" class="l"/><text x="517" y="139" class="a b j">1</text><g class="c"><path d="M380 15h5m-5 40h5" class="f i k"/><g class="d e"><use href="#B"/><use href="#C" class="f"/></g></g><g class="g"><circle cx="445" cy="35" r="2"/><circle cx="385" cy="15" r="2"/><circle cx="385" cy="55" r="2"/></g><g class="c"><g class="f i"><path d="M380 95h5" class="k"/><path d="M380 135h5" class="m"/></g><g class="d e"><use href="#B" y="80"/><use href="#C" y="80" class="f"/></g></g><circle cx="445" cy="115" r="2" class="l"/><circle cx="385" cy="95" r="2" class="g"/><circle cx="385" cy="135" r="2" class="l"/><g class="c"><g class="f i"><path d="M540 15h5" class="m"/><path d="M540 55h7" class="k"/></g><g class="d e"><use href="#B" x="160"/><use href="#C" x="160" class="f"/></g></g><g class="l"><circle cx="605" cy="35" r="2"/><circle cx="545" cy="15" r="2"/></g><circle cx="545" cy="55" r="2" class="g"/><g class="c"><path d="M540 95h5m-5 40h5" class="f i m"/><g class="d e"><use href="#B" x="160" y="80"/><use href="#C" x="160" y="80" class="f"/></g></g><circle cx="605" cy="115" r="2" class="g"/><g class="l"><circle cx="545" cy="95" r="2"/><circle cx="545" cy="135" r="2"/></g><g class="c"><path d="M279 85h-3" class="f i k"/><use href="#A" x="-170" y="-30" class="d e"/></g><text x="300" y="92" class="a b h">b</text><text x="292" y="89" class="a b">0</text><g class="c d e"><path d="m155 95-19-7v14l19-7" class="f"/><circle cx="160" cy="95" r="4.5"/></g><circle cx="135" cy="95" r="2" class="g"/><g class="c d e"><path d="M190 80a25 25 90 0 0 0-50"/><path d="M190 30h-24v50h24" class="f"/></g><g class="g"><circle cx="215" cy="55" r="2"/><circle cx="165" cy="75" r="2"/></g><g class="c d e"><path d="m155 35-19-7v14l19-7" class="f"/><circle cx="160" cy="35" r="4.5"/></g><circle cx="165" cy="35" r="2" class="l"/><circle cx="135" cy="35" r="2" class="g"/><g class="c"><path d="M215 55h10v10h2m-12 50h10v-10h2" class="f i k"/><use href="#B" x="-170" y="50" class="d e"/></g><g class="g"><circle cx="275" cy="85" r="2"/><circle cx="225" cy="65" r="2"/><circle cx="225" cy="105" r="2"/></g><g class="c d e"><path d="M190 140a25 25 90 0 0 0-50"/><path d="M190 90h-24v50h24" class="f"/></g><circle cx="215" cy="115" r="2" class="g"/><circle cx="165" cy="95" r="2" class="l"/><circle cx="165" cy="135" r="2" class="g"/><g class="c"><path d="M40 95h15" class="f i k"/><path d="M6 86h24l10 9-10 9H6z" class="d e"/></g><text x="25" y="102" class="a b h">b</text><ellipse cx="20" cy="94" rx="4.5" ry="7" class="g"/><text x="17" y="99" class="a b j">0</text><circle cx="45" cy="95" r="2" class="g"/><g class="c"><path d="M40 35h95" class="f i k"/><path d="M6 26h24l10 9-10 9H6z" class="d e"/></g><text x="25" y="42" class="a b h">b</text><ellipse cx="20" cy="34" rx="4.5" ry="7" class="g"/><text x="17" y="39" class="a b j">0</text><circle cx="45" cy="35" r="2" class="g"/><defs><path id="A" d="M451 106h24l10 9-10 9h-24z"/><path id="B" d="M445 35c-20-25-20-25-50-25 13 25 13 25 0 50 30 0 30 0 50-25Z"/><path id="C" d="M385 10c13 25 13 25 0 50"/></defs></svg>